<svg width="24" height="24" viewBox="0 0 24 24" fill="none" xmlns="http://www.w3.org/2000/svg">
  <path d="M9 3.75C9 3.33579 9.33579 3 9.75 3H14.25C14.6642 3 15 3.33579 15 3.75V5H18.25C18.6642 5 19 5.33579 19 5.75C19 6.16421 18.6642 6.5 18.25 6.5H5.75C5.33579 6.5 5 6.16421 5 5.75C5 5.33579 5.33579 5 5.75 5H9V3.75Z" fill="#111111"/>
  <path d="M7.5 8C7.5 7.58579 7.83579 7.25 8.25 7.25H15.75C16.1642 7.25 16.5 7.58579 16.5 8V18.25C16.5 19.7688 15.2688 21 13.75 21H10.25C8.73122 21 7.5 19.7688 7.5 18.25V8Z" fill="#111111"/>
  <path d="M10 10.25C10.4142 10.25 10.75 10.5858 10.75 11V17C10.75 17.4142 10.4142 17.75 10 17.75C9.58579 17.75 9.25 17.4142 9.25 17V11C9.25 10.5858 9.58579 10.25 10 10.25Z" fill="white"/>
  <path d="M14 10.25C14.4142 10.25 14.75 10.5858 14.75 11V17C14.75 17.4142 14.4142 17.75 14 17.75C13.5858 17.75 13.25 17.4142 13.25 17V11C13.25 10.5858 13.5858 10.25 14 10.25Z" fill="white"/>
</svg>
